<svg xmlns="http://www.w3.org/2000/svg" xmlns:xlink="http://www.w3.org/1999/xlink" viewBox="0,0,256,256" width="80px" height="80px" fill-rule="nonzero"><g fill="none" fill-rule="nonzero" stroke="none" stroke-width="1" stroke-linecap="butt" stroke-linejoin="miter" stroke-miterlimit="10" stroke-dasharray="" stroke-dashoffset="0" font-family="none" font-weight="none" font-size="none" text-anchor="none" style="mix-blend-mode: normal"><g transform="scale(6.4,6.4)"><path d="M6.5,37.5v-35h18.293l8.707,8.707v26.293z" fill="#ffffff"></path><path d="M24.586,3l8.414,8.414v25.586h-26v-34h17.586M25,2h-19v36h28v-27l-9,-9z" fill="#c55b28"></path><path d="M24.5,11.5v-9h0.293l8.707,8.707v0.293z" fill="#ffffff"></path><path d="M25,3.414l7.586,7.586h-7.586v-7.586M25,2h-1v10h10v-1l-9,-9zM12,16h16v1h-16zM12,19h12v1h-12zM12,22h16v1h-16zM12,25h12v1h-12zM12,28h16v1h-16z" fill="#c55b28"></path></g></g></svg>